.
 
http://www.scenetime.com    -   SceneTime [ We been having it ] !!!


How come you press harder on a remote control when you know the battery is dead? so you better seed to get speed ;)

        Seed back for speed


...................................NFO:.................................................
                                                                             
 :::  :::  :::::  :::   :::   :::::    ::: :::     :::    :::::    
 :::  :::  ::::::::::  :::   :::::::    ::::: :::     :::   :::::::   
 :::  ::::::::::::::::::::::::::: ::: ::: :::     :::  :::::::::  
 :::  ::: :::::::::::: :::::: ::: ::: :::     :::  ::::::  
 :::  ::: ::: :::::::::: :::  ::: ::: :::  :::     :::  ::: :::  
 :::  ::: ::: :::::::::  :::  ::: ::: :::  :::  :  :::  ::: :::  
 :::  ::: ::: :::::::::: :::  ::: ::: :::  ::: ::: :::  ::: :::  
 :::  ::: ::: ::::::::::::  ::: ::: :::  ::: : : :::  ::: :::  
 :::..::: ::: :::::: ::::::  ::: ::: :::  ::::: :::::  ::: :::  
 ::::::::: :::::: ::::::  ::: ::::: ::::: :::::  ::: :::  
  ::::  ::: ::::::  ::::::  ::: :::  ::::   ::::  ::: :::  

                                                                              
                  NOTES                    
                                                                              
                  NOTES                    
                                                                              
                                                                              
                                                                              
Encoded By .......:UnKnOwN                                                   
Runtime ..........:1:17                                                      
IMDb URL .........:http://www.imdb.com/title/tt0279513/                      
Language .........:English                                                   
File Size ........:1.21 GiB                                                   
Release Date ......... 2011                                                  
Source       ......... When.Good.Ghouls.Go.Bad.2001.COMPLETE.R1.NTSC.DVDR-theluckyman                                    
File Type    ......... Multi rar                                            
PS3 Compatible ....... Why dont You complain in comments and let me know(:   
Genre        ......... Comedy | Fantasy | Family                                    
                                                                              
                                                                              
Video
ID                               : 0
Format                           : MPEG-4 Visual
Format profile                   : Advanced Simple@L5
Format settings, BVOP            : 2
Format settings, QPel            : No
Format settings, GMC             : No warppoints
Format settings, Matrix          : Default (H.263)
Muxing mode                      : Packed bitstream
Codec ID                         : DX50
Codec ID/Hint                    : DivX 5
Duration                         : 1h 17mn
Bit rate                         : 1 395 Kbps
Width                            : 720 pixels
Height                           : 404 pixels
Display aspect ratio             : 16:9
Frame rate                       : 23.976 fps
Color space                      : YUV
Chroma subsampling               : 4:2:0
Bit depth                        : 8 bits
Scan type                        : Progressive
Compression mode                 : Lossy
Bits/(Pixel*Frame)               : 0.200
Stream size                      : 774 MiB (63%)
Writing library                  : XviD 1.2.1 (UTC 2008-12-04)

Audio
ID                               : 1
Format                           : AC-3
Format/Info                      : Audio Coding 3
Mode extension                   : CM (complete main)
Codec ID                         : 2000
Duration                         : 1h 17mn
Bit rate mode                    : Constant
Bit rate                         : 448 Kbps
Channel(s)                       : 6 channels
Channel positions                : Front: L C R, Side: L R, LFE
Sampling rate                    : 48.0 KHz
Bit depth                        : 16 bits
Compression mode                 : Lossy
Stream size                      : 248 MiB (20%)
Alignment                        : Aligned on interleaves
Interleave, duration             : 32 ms (0.77 video frame)
Interleave, preload duration     : 32 ms


                                                                              
                                                                              
                                                                              
                                 SYSPNOSIS                                    
 Twelve-year-old Danny Walker (Joe Pichler) is having a tough time adjusting 
to life in a new town, where a bizarre curse prevents the citizens from 
celebrating Halloween. When his Uncle Fred (Christopher Lloyd) dies in a 
pumpkin accident and comes back as a zombie, only Danny can see him. 
Together -- with an assist from Danny's girlfriend -- they investigate the 
whammy's cause in this made-for-cable movie.      
                                                 
                             
                                                                              
                                RELEASE INFO                                  
                                                                              
                                    None                                           
                                                                              

                 
              
                                                                             
                                LOOKING FOR                                  
                                                                             
                  Kangaroo Meat heard it freakin delicious(:                 
                                                                             
                                                                             
                                                                             
                                                                             

               GREETZ & RESPECT               
  
                          NOBODY YET WILL LET YOU KNOW                        
                                                                              
                          MORE GOODIES COMING REAL SOON